<svg xmlns="http://www.w3.org/2000/svg" viewBox="0 0 46.67 46.71"><defs><style>.cls-1{fill:#2d4245;}</style></defs><title>Asset 15</title><g id="Layer_2" data-name="Layer 2"><g id="Layer_1-2" data-name="Layer 1"><path class="cls-1" d="M36.36,6.92l.54.29a.66.66,0,0,0,.1.93c.26.22.53.24.72,0s.12-.4-.12-.88c-.34-.67-.36-1,0-1.39a.93.93,0,0,1,1.38,0,1.08,1.08,0,0,1,.36,1.13L38.73,7a.6.6,0,0,0-.15-.65.4.4,0,0,0-.56,0c-.14.17-.1.37.14.85.35.69.36,1,0,1.39a1.05,1.05,0,0,1-1.56,0A1.22,1.22,0,0,1,36.36,6.92Z"/><path class="cls-1" d="M41.49,8.66l1.33,1.8-.45.33-1-1.32-.64.48.9,1.22-.45.33-.89-1.23-.72.53,1,1.32-.44.33-1.33-1.8Z"/><path class="cls-1" d="M42.49,15.53,42,14.33l-.74.05-.26-.6,3.61-.15.18.42-2.51,2.59L42,16Zm.42-.42.93-.91-1.3.09Z"/><path class="cls-1" d="M44.09,20.38l.2.58a.65.65,0,0,0-.57.74c0,.34.21.54.5.52s.36-.21.51-.72c.22-.72.45-1,.93-1a.93.93,0,0,1,1,1,1.08,1.08,0,0,1-.52,1.06L45.79,22a.59.59,0,0,0,.34-.57.39.39,0,0,0-.4-.39c-.22,0-.33.19-.49.71-.21.74-.45,1-.92,1a1,1,0,0,1-1.13-1.07A1.21,1.21,0,0,1,44.09,20.38Z"/><path class="cls-1" d="M43.78,26.54l.15-1.3-.65-.34.08-.65L46.52,26l-.05.45L43,27.36l.08-.65Zm.57-.13,1.27-.3-1.16-.6Z"/><path class="cls-1" d="M45.69,30.13l-.19.57-2.66-.9-.46,1.36L41.85,31l.66-1.93Z"/><path class="cls-1" d="M43.38,34.21l.51-.92.48.27-1.32,2.36-.48-.27.51-.92-2.44-1.36.29-.53Z"/><path class="cls-1" d="M39.64,40.08,38,41.57l-.37-.41,1.22-1.09-.54-.59-1.13,1-.36-.41,1.13-1-.6-.67-1.22,1.09-.36-.42,1.66-1.48Z"/><path class="cls-1" d="M32.9,41.71l1.15-.65-.12-.73L34.5,40,35,43.6l-.39.22-2.82-2.27.57-.32Zm.45.38,1,.85-.21-1.29Z"/><path class="cls-1" d="M30.69,44.94l1-.32.18.52L29.28,46l-.17-.53,1-.33-.87-2.66.58-.19Z"/><path class="cls-1" d="M26.89,46.47l-2.23.24-.06-.55L26.23,46l-.09-.79-1.51.16-.06-.55,1.51-.16L26,43.75l-1.63.17-.06-.55,2.22-.24Z"/><path class="cls-1" d="M20.49,43.18l.66,1.46.2,0,.22,0,.14-1.39.6.06L22,46.7l-1.1-.11c-.79-.08-1.09-.48-1-1.08a.89.89,0,0,1,.71-.86l-.75-1.54Zm.59,2c-.39,0-.61.05-.64.37s.16.45.55.49l.44,0,.09-.85Z"/><path class="cls-1" d="M17,43.7,17.53,46l-.68-.21-.35-1.67-1.28,1.13-.68-.22,1.84-1.55.4-1.25.58.19Z"/><path class="cls-1" d="M10.59,40.05l-.54-.28a.66.66,0,0,0-.12-.93.48.48,0,0,0-.72,0c-.15.18-.11.4.13.87.36.67.38,1,.06,1.39A.94.94,0,0,1,8,41.1,1.11,1.11,0,0,1,7.64,40l.58.09a.58.58,0,0,0,.16.64.39.39,0,0,0,.56,0c.14-.16.1-.37-.16-.85-.36-.67-.37-1-.06-1.38a1.05,1.05,0,0,1,1.56,0A1.22,1.22,0,0,1,10.59,40.05Z"/><path class="cls-1" d="M5.45,38.44,4.08,36.67l.44-.34,1,1.29.63-.48-.92-1.21.43-.33.93,1.2.71-.55L6.3,35l.44-.34,1.37,1.77Z"/><path class="cls-1" d="M4.31,31.6l.57,1.18.73-.06.28.59-3.61.22-.19-.41,2.46-2.64.28.59ZM3.9,32,3,33l1.3-.12Z"/><path class="cls-1" d="M2.6,26.77l-.2-.58A.66.66,0,0,0,3,25.43c0-.34-.23-.54-.51-.51s-.36.21-.5.73c-.2.73-.43,1-.92,1.05a.93.93,0,0,1-1-.95,1.09,1.09,0,0,1,.5-1.08l.36.47a.6.6,0,0,0-.33.58A.39.39,0,0,0,1,26.1c.22,0,.33-.2.47-.72.2-.74.43-1,.91-1.05a1.05,1.05,0,0,1,1.15,1.05A1.23,1.23,0,0,1,2.6,26.77Z"/><path class="cls-1" d="M2.8,20.59,2.66,21.9l.67.32-.07.65L.06,21.19l0-.45,3.48-1-.07.65Zm-.58.14L1,21.06l1.17.57Z"/><path class="cls-1" d="M.81,17,1,16.46l2.67.85.44-1.37.53.17L4,18.05Z"/><path class="cls-1" d="M3.05,12.9l-.5.93-.49-.26,1.28-2.39.49.26-.5.93L5.8,13.69l-.28.54Z"/><path class="cls-1" d="M6.64,7,8.27,5.45l.38.4L7.46,7,8,7.55l1.11-1,.38.4L8.38,8,9,8.61,10.18,7.5l.38.41L8.93,9.43Z"/><path class="cls-1" d="M13.37,5.2l-1.14.67.14.72-.57.34-.55-3.58.39-.23L14.5,5.33l-.56.33Zm-.46-.38L11.9,4l.23,1.28Z"/><path class="cls-1" d="M15.52,1.92l-1,.35-.19-.52L16.9.85l.18.53-1,.34L17,4.37l-.57.2Z"/><path class="cls-1" d="M19.28.33,21.49,0l.07.55L19.94.8l.1.79,1.51-.19.07.55-1.51.19.12.89,1.62-.2.07.54-2.22.29Z"/><path class="cls-1" d="M25.73,3.49,25,2l-.2,0-.22,0L24.5,3.39l-.59-.05L24.19,0l1.09.09c.79.07,1.1.46,1,1.06a.88.88,0,0,1-.69.87l.78,1.53Zm-.63-2c.39,0,.61-.06.63-.38s-.17-.44-.56-.47l-.44,0-.07.85Z"/><path class="cls-1" d="M29.27,2.89,28.65.56l.68.2.39,1.66L31,1.27l.68.2L29.85,3.06l-.38,1.26-.58-.18Z"/><path class="cls-1" d="M24.74,35.57a.29.29,0,0,0,.13-.1.08.08,0,0,1,.07,0c0-.27-.06-.53-.07-.76s-.05-.48-.08-.72,0-.26,0-.38a2.17,2.17,0,0,0,0-.38V32.12a1.78,1.78,0,0,1-.05-.46,7.73,7.73,0,0,0,0-1.07,5,5,0,0,1,.08-1.07.84.84,0,0,0,0-.45,1,1,0,0,1-.08-.41V25.31c0-.31-.1-.49-.31-.56a.17.17,0,0,0-.15-.05,10.55,10.55,0,0,1-1.68.05c-.54,0-1.1-.05-1.67-.05a1.73,1.73,0,0,1-1.63-.92A8.19,8.19,0,0,1,18.9,23a1.54,1.54,0,0,1-.11-1,.94.94,0,0,0,0-.5,1.81,1.81,0,0,1-.08-.51,7.66,7.66,0,0,0,0-1.58,13.7,13.7,0,0,1,0-1.57q0-.4,0-.84c0-.29,0-.57,0-.84s0-.81,0-1.22,0-.8-.08-1.17c0-.17,0-.35,0-.56a4.5,4.5,0,0,1,.07-.56V12.5a3.18,3.18,0,0,1,0-1,3.79,3.79,0,0,0,0-1A2.1,2.1,0,0,1,19.28,9a2.1,2.1,0,0,1,1.29-.84,3.62,3.62,0,0,1,.69-.13l.68,0a3.93,3.93,0,0,1,.84,0,2.69,2.69,0,0,0,.89,0,10.74,10.74,0,0,1,2,.1,2.7,2.7,0,0,1,.69.18l.58.23.16.23a.73.73,0,0,0,.15.17,2.48,2.48,0,0,1,.63,1.22,3.93,3.93,0,0,1,0,1.37c0,.92,0,1.8,0,2.65a7.13,7.13,0,0,1,.05.79v2l-.23.1a1.83,1.83,0,0,1-.28.1h-.94a8.47,8.47,0,0,0-1,.06.65.65,0,0,1-.56-.21,4.42,4.42,0,0,1-.15-.66,1.45,1.45,0,0,1,.1-.71v-.1a2.08,2.08,0,0,1-.05-1,3.43,3.43,0,0,0,.05-1,7.5,7.5,0,0,1,0-1.05c0-.32,0-.66,0-1a1.55,1.55,0,0,0-.1-.4c-.48,0-.95.07-1.42.12A3.86,3.86,0,0,1,21.94,11c-.2.1-.27.23-.2.4a.75.75,0,0,1,.08.41,2.83,2.83,0,0,0,0,.41,2.27,2.27,0,0,0,0,.58c0,.19,0,.38,0,.59v2.89c0,.37,0,.72,0,1a6.57,6.57,0,0,0,0,1v1.05c0,.32,0,.66.05,1,0,.07,0,.15,0,.25a1.38,1.38,0,0,0,0,.26c-.07.5.14.76.61.76a12.63,12.63,0,0,0,1.37,0l1.32,0a3.22,3.22,0,0,1,1,.15,2.21,2.21,0,0,1,1.37,1,2.49,2.49,0,0,1,.46,1.5,4,4,0,0,0-.05.58v.59a.49.49,0,0,0-.05.25v2.75c0,.37.05.73.05,1.09s0,.72.05,1.09a1.86,1.86,0,0,1,0,.36,3.08,3.08,0,0,1-.07.35v.21a3.62,3.62,0,0,1,.05,1.37.62.62,0,0,0,0,.38,1.58,1.58,0,0,1,.05.38,2.25,2.25,0,0,1,0,.38c0,.12,0,.25,0,.38a.8.8,0,0,0-.05.36,4.51,4.51,0,0,1,.07.53,5.17,5.17,0,0,1,0,.54,2.54,2.54,0,0,1-1.47,2.33,2.79,2.79,0,0,1-1.73.26,4.36,4.36,0,0,1-.51,0,1.46,1.46,0,0,0-.51,0,3.07,3.07,0,0,1-.53.05H21.84a7.34,7.34,0,0,1-.81-.05,2.45,2.45,0,0,1-1.2-.43,2.8,2.8,0,0,1-.83-.95,7.88,7.88,0,0,1-.31-1.67,9.55,9.55,0,0,1,0-1.68,8.56,8.56,0,0,0,0-1.52,6.53,6.53,0,0,1,0-1.53,5.35,5.35,0,0,1,0-.58c0-.19,0-.37,0-.54a.93.93,0,0,1,.46-.28l.41,0a5.31,5.31,0,0,0,.68.05,5.6,5.6,0,0,1,.69.05,5.4,5.4,0,0,1,.71.1,2.94,2.94,0,0,0,.05.61c0,.38,0,.72,0,1s0,.67,0,1.05,0,.61,0,.91,0,.63,0,1a3,3,0,0,0-.05.53v.53a.35.35,0,0,0,.05.18,1.45,1.45,0,0,1,.1.18A8.09,8.09,0,0,1,24.74,35.57ZM19.91,20.33a.74.74,0,0,0-.05.3l.1.1.21-.2a2.17,2.17,0,0,1-.26-.2c.07-.14.14-.26.2-.36-.13.07-.21.12-.22.15S19.88,20.22,19.91,20.33ZM20,17.68a1.3,1.3,0,0,0-.05.36C20.08,17.94,20.1,17.82,20,17.68ZM20,22.87a.14.14,0,0,1,.1-.05L20,22.66l-.05.05s.05.06.05.08S20,22.83,20,22.87Zm-.05,10v0Zm.15-14.13q-.25.11,0,.36v-.36ZM20.22,17l-.11-.2-.05.05.16.15a.28.28,0,0,0,.12.05l.13.05V17c-.07,0-.11,0-.13,0S20.28,17,20.22,17Zm-.11,4.58.11.1a.66.66,0,0,0,.2-.26.16.16,0,0,0-.1-.05l-.08.1A.3.3,0,0,1,20.11,21.55Zm.16,8.84c0,.17-.06.29-.08.38a.9.9,0,0,1-.08.23.69.69,0,0,1,.21-.21C20.42,30.73,20.4,30.59,20.27,30.39Zm.2-10.67.05-.1a.78.78,0,0,0-.35-.11v0Zm.05,1.42a1,1,0,0,0-.05-.71.51.51,0,0,0-.23.3,1.94,1.94,0,0,0,0,.36A.78.78,0,0,1,20.52,21.14Zm-.15.76V22s.05,0,.05-.05Zm.15.76a.16.16,0,0,0-.1.05s0,0,0,.11h.05Zm.05.72v-.06h-.1v.06Zm-.05-1a.16.16,0,0,0,.1-.05.16.16,0,0,1-.1-.05h.05v.1l-.07.05S20.49,22.44,20.52,22.41Zm.15-4.78v0s-.05,0-.05-.05S20.64,17.63,20.67,17.63Zm.1-2.13h-.1a.3.3,0,0,0,0,.2h.05Zm-.1,5,0,.05v-.05Zm.16,1.27a1,1,0,0,0,.05-.23c0-.05-.07-.06-.21,0A.63.63,0,0,1,20.83,21.75Zm.15.81h-.05v.66a.5.5,0,0,1,.12-.1.15.15,0,0,0,.08-.05Q21.09,22.88,21,22.56Zm.51.05s0-.06,0-.07a.1.1,0,0,0,0-.08h-.26v.1A.36.36,0,0,1,21.49,22.61Zm0,.56c0-.17,0-.25-.16-.25A1,1,0,0,1,21.49,23.17Zm.45.56a.26.26,0,0,0,.31-.15l-.15.07Zm.11-.76s-.05,0,0,0,0,0,.08,0a.78.78,0,0,0,.1.25.59.59,0,0,0,.05-.12A.58.58,0,0,1,22.3,23Zm.4.15.2.1s.06,0,.06,0L22.6,23Zm.31-.3h0s0-.05,0-.05Zm.4.56-.2-.21c0,.1-.09.22-.15.36a1.23,1.23,0,0,0,.35,0v-.2a.4.4,0,0,0,.26.1C23.35,23.27,23.27,23.24,23.16,23.38Zm.87.1a.49.49,0,0,1-.33.07c-.12,0-.22.08-.28.28l.61-.15Zm-.46-.31a.31.31,0,0,0,.13,0,.08.08,0,0,1,.07,0v-.35a1.63,1.63,0,0,1-.15.4l-.05,0Zm.91.41v.2h.05s0-.08-.1-.15a3.38,3.38,0,0,0,.16-.36l-.26.18a1.62,1.62,0,0,0-.2.18l.1.1A1.53,1.53,0,0,1,24.48,23.58Zm.16-.56V23h-.16v.1a.1.1,0,0,0,.08,0Zm.15.71H25a.62.62,0,0,0,.05-.3.74.74,0,0,0-.2-.16,2.16,2.16,0,0,0-.05.46h0Zm.3-.71h.26V23A.46.46,0,0,0,25.09,23Zm.21.66v-.05s-.05,0-.05.05Zm.81-.61.05.05-.05-.05a.47.47,0,0,0-.46-.2c.07.17.15.24.23.23Zm.15,1.12h-.61a.91.91,0,0,1,.16.4.27.27,0,0,0,.2-.05l-.1-.2A1.93,1.93,0,0,1,26.26,24.19Zm-.4-.71.05.05h-.05v-.21s-.05,0-.05,0,0,0-.06,0Zm.05,2.23.05.05v-.05Zm0,2.95v.1H26v-.1Zm.15-15.09a0,0,0,0,1,.05,0l.15.15a0,0,0,0,1,0,0l-.2-.1Zm.1,14.78V28.3a0,0,0,0,0-.05.05Zm0-12.7h.1V15.6h-.1Zm.23,8.13s0,0,.08-.05l-.13-.05-.13-.05.1.2S26.37,23.78,26.39,23.78Zm-.18,1.12.05.05A0,0,0,0,1,26.21,24.9Zm.1.66a.11.11,0,0,0,0-.08.08.08,0,0,1,0-.07h-.05a.11.11,0,0,1,.05.07.15.15,0,0,0,0,.08c.11.1.16.09.16,0A.25.25,0,0,1,26.31,25.56Zm0,4.27v.1l.13-.05.13-.05a.14.14,0,0,0-.05-.1A.34.34,0,0,1,26.26,29.83Zm.26-3.41-.18.16c-.05,0,0,.1,0,.2l.18-.1C26.59,26.64,26.58,26.56,26.52,26.42Zm.1-12c-.24,0-.32,0-.26.25a.33.33,0,0,1,.11-.12ZM26.57,25.1c.07-.17,0-.25-.15-.25A1.53,1.53,0,0,1,26.57,25.1Zm.05.92a.19.19,0,0,1-.1.05l.1.1Zm-.05,1.57h.05a0,0,0,0,0-.05-.05Zm0,.87s0,0,0,.05l.1-.21h0l-.1.11S26.58,28.46,26.59,28.46ZM26.77,24c-.13.06-.19.14-.15.22a.51.51,0,0,0,.15.23.25.25,0,0,0,.05-.25l-.1-.2Zm-.05,8.13a.11.11,0,0,1-.08,0S26.65,32.13,26.72,32.17Zm0-6.36h0v0h0Zm0,1.12h0V27h0Zm0,.46a0,0,0,0,0,0-.05v.05Z"/></g></g></svg>